<svg version="1.2" xmlns="http://www.w3.org/2000/svg" viewBox="0 0 210 630" width="210" height="630">
	<title>bt-bonus-svg</title>
	<style>
		.s0 { fill: #ffffff } 
		.s1 { fill: none;stroke: #ffffff;stroke-linecap: round;stroke-linejoin: round;stroke-width: 3.2 } 
	</style>
	<g id="Layer">
		<g id="Layer0_0_FILL">
			<path id="Layer" fill-rule="evenodd" class="s0" d="m49.5 31.6v17.2q0 1-0.6 1.7-0.7 0.6-1.7 0.6h-24.4q-1 0-1.7-0.6-0.6-0.7-0.6-1.7v-17.3q0-1 0.6-1.6 0.7-0.6 1.7-0.6h2.6v-5.4q0-3.5 2.7-6.3 2.9-2.8 6.8-2.8 3.9 0 6.8 2.9 2.7 2.7 2.7 6.2v5.3l2.8 0.1q1-0.1 1.6 0.6 0.7 0.7 0.7 1.7zm-10.2-11.3q-1.8-1.9-4.4-1.9-2.6 0-4.4 1.9-1.6 1.7-1.6 3.7v5.4h12v-5.5q0-1.9-1.6-3.6z"/>
		</g>
	</g>
	<g id="Layer">
		<g id="Layer">
			<path id="Duplicate_Items_Folder_Tween_1_0_Layer0_0_1_STROKES" fill-rule="evenodd" class="s1" d="m35.2 106.1q0.9 0 1.5 0.6 0.7 0.6 0.7 1.5 0 1.7-1.3 3-1.2 1.2-3 1.2-2.6 0-4.5-1.8-1.8-1.9-1.8-4.5 0 0 0 0 0-3.5 2.5-6 2.4-2.5 5.9-2.5 4.4 0 7.5 3.1 3.1 3.1 3.1 7.5 0 5.2-3.7 8.9-3.7 3.8-9 3.8-6.1 0-10.4-4.4-4.4-4.3-4.4-10.4 0-7 5-12 4.9-4.9 11.9-5 3.9 0 7.4 1.5 3.5 1.5 6.1 4.1 2.6 2.6 4.1 6.1 1.5 3.5 1.5 7.4 0 4.3-1.7 8.2-1.6 3.8-4.5 6.7-2.9 3-6.7 4.6-4 1.6-8.3 1.6-4.7 0-9-1.8-4.2-1.8-7.4-5-3.2-3.2-5-7.4-1.8-4.3-1.8-9 0-5.2 2-9.9 1.9-4.6 5.4-8.1 3.5-3.5 8.1-5.4 4.7-2 9.8-2 5.6 0 10.7 2.1 5 2.1 8.8 5.9 3.8 3.8 5.9 8.8 2.1 5.1 2.1 10.7"/>
		</g>
	</g>
	<g id="Layer copy 2">
		<g id="Layer">
			<path id="Duplicate_Items_Folder_Tween_1_0_Layer0_0_1_STROKES" fill-rule="evenodd" class="s1" d="m105.2 106.1q0.9 0 1.5 0.6 0.7 0.6 0.7 1.5 0 1.7-1.3 3-1.2 1.2-3 1.2-2.6 0-4.5-1.8-1.8-1.9-1.8-4.5 0 0 0 0 0-3.5 2.5-6 2.4-2.5 5.9-2.5 4.4 0 7.5 3.1 3.1 3.1 3.1 7.5 0 5.2-3.7 8.9-3.7 3.8-9 3.8-6.1 0-10.4-4.4-4.4-4.3-4.4-10.4 0-7 5-12 4.9-4.9 11.9-5 3.9 0 7.4 1.5 3.5 1.5 6.1 4.1 2.6 2.6 4.1 6.1 1.5 3.5 1.5 7.4 0 4.3-1.7 8.2-1.6 3.8-4.5 6.7-2.9 3-6.7 4.6-4 1.6-8.3 1.6-4.7 0-9-1.8-4.2-1.8-7.4-5-3.2-3.2-5-7.4-1.8-4.3-1.8-9 0-5.2 2-9.9 1.9-4.6 5.4-8.1 3.5-3.5 8.1-5.4 4.7-2 9.8-2 5.6 0 10.7 2.1 5 2.1 8.8 5.9 3.8 3.8 5.9 8.8 2.1 5.1 2.1 10.7"/>
		</g>
	</g>
</svg>